Coordinates
version=1
nRows=10
nColumns=22
inDegrees=yes

Units are S.I. units (second, meters, Newtons, ...)
If the header above contains a line with 'inDegrees', this indicates whether rotational values are in degrees (yes) or radians (no).

endheader
time	pelvis_tilt	pelvis_list	pelvis_rotation	pelvis_tx	pelvis_ty	pelvis_tz	hip_flexion_r	hip_adduction_r	hip_rotation_r	knee_angle_r	ankle_angle_r	subtalar_angle_r	hip_flexion_l	hip_adduction_l	hip_rotation_l	knee_angle_l	ankle_angle_l	subtalar_angle_l	lumbar_extension	lumbar_bending	lumbar_rotation
      1.42000000	     -1.25405412	     -0.17899419	      1.34345355	     -1.11489908	      1.06903610	     -0.61744459	      1.27252906	     -0.82700339	     -0.84456900	    -17.37212225	     16.22273353	     -1.68219914	     -1.65640573	      3.07560648	     -1.38129531	    -11.73800889	     15.69897770	     -3.46900323	     -2.47442019	     -2.86851401	     -5.47794771
      1.43000000	     -1.29063723	     -0.02953302	      1.40312435	     -1.11458240	      1.06865376	     -0.61853094	      1.85385719	     -1.03396600	     -0.78805475	    -18.44890465	     16.42827206	     -1.54582781	     -1.65398308	      3.29052967	     -1.24688527	    -11.72532911	     15.71150717	     -3.51490419	     -2.61228238	     -3.02129197	     -5.53586673
      1.44000000	     -1.37281854	      0.10314229	      1.45637006	     -1.11428009	      1.06822361	     -0.61961822	      2.54111705	     -1.22557740	     -0.73751115	    -19.62678865	     16.57219144	     -1.34886611	     -1.60770503	      3.48802029	     -1.13580307	    -11.70044358	     15.74102776	     -3.56612681	     -2.70135239	     -3.15363666	     -5.59466988
      1.45000000	     -1.42838150	      0.24009881	      1.50482693	     -1.11400008	      1.06785768	     -0.62069529	      3.24598382	     -1.41878499	     -0.67414219	    -20.88627919	     16.67645802	     -1.16651128	     -1.59073798	      3.68935189	     -1.03181727	    -11.67271788	     15.74729757	     -3.59060264	     -2.83346929	     -3.29249914	     -5.64374639
      1.46000000	     -1.50354280	      0.36637652	      1.54937575	     -1.11374955	      1.06749062	     -0.62175404	      4.02720251	     -1.59961804	     -0.60671874	    -22.24089336	     16.71335466	     -0.94810752	     -1.54651348	      3.87895802	     -0.94344223	    -11.65394097	     15.76351029	     -3.61107880	     -2.95124757	     -3.42096331	     -5.69457968
      1.47000000	     -1.59538725	      0.47950710	      1.59398123	     -1.11353794	      1.06713147	     -0.62280381	      4.88441358	     -1.76605856	     -0.53778730	    -23.69256613	     16.67064102	     -0.69253764	     -1.47787269	      4.05491306	     -0.86744498	    -11.64201937	     15.78829460	     -3.62975939	     -3.06151401	     -3.53420696	     -5.75002841
      1.48000000	     -1.69005881	      0.58776819	      1.63360452	     -1.11331613	      1.06679925	     -0.62383094	      5.80400245	     -1.92755194	     -0.47906848	    -25.24558694	     16.57285154	     -0.42720923	     -1.41694816	      4.22652522	     -0.79745216	    -11.60902768	     15.78413885	     -3.63993454	     -3.17200684	     -3.64286543	     -5.80675295
      1.49000000	     -1.80396305	      0.68250627	      1.67869066	     -1.11315183	      1.06646252	     -0.62484456	      6.80855970	     -2.07292022	     -0.41395293	    -26.90111609	     16.37324935	     -0.10864833	     -1.31654371	      4.38369058	     -0.73162185	    -11.60428825	     15.80126863	     -3.65749230	     -3.27765793	     -3.73808928	     -5.87408166
      1.50000000	     -1.87694152	      0.80312318	      1.71745165	     -1.11294725	      1.06619841	     -0.62582396	      7.82622298	     -2.24310939	     -0.35124375	    -28.65182635	     16.13575395	      0.16988493	     -1.27776857	      4.56876031	     -0.65842628	    -11.56987604	     15.76141595	     -3.66031346	     -3.43581680	     -3.86503626	     -5.94034426
      1.51000000	     -2.02982941	      0.85907943	      1.76344071	     -1.11273866	      1.06582719	     -0.62676852	      8.98771964	     -2.34223378	     -0.29013564	    -30.48658052	     15.74476010	      0.59857488	     -1.13271275	      4.68288001	     -0.61554685	    -11.57091274	     15.81236480	     -3.69370940	     -3.50260768	     -3.91839221	     -6.02989585
